<svg width="316" height="56" viewBox="0 0 316 56" fill="none" xmlns="http://www.w3.org/2000/svg">
<path d="M63.791 19.2182L54.0164 2.04559C53.2974 0.78236 51.9407 0 50.4691 0H47.1602L58.0991 19.2182C58.3755 19.7039 58.3755 20.2961 58.0991 20.7818L47.1602 40H50.4691C51.9407 40 53.2974 39.2176 54.0164 37.9544L63.791 20.7818C64.0675 20.2961 64.0675 19.7039 63.791 19.2182Z" fill="#662E6B"/>
<path fill-rule="evenodd" clip-rule="evenodd" d="M4.06567 0H44.7224L55.6613 19.2182C55.9378 19.7039 55.9378 20.2961 55.6613 20.7818L44.7224 40H4.06567C1.82026 40 0 38.2091 0 36V4C0 1.79086 1.82026 0 4.06567 0ZM18.2574 29.6H22.0055V11.325H19.223V20.9375C19.2315 21.4875 19.2442 22.0583 19.2611 22.65C19.2865 23.2333 19.312 23.8 19.3374 24.35C19.3628 24.9 19.3839 25.3875 19.4009 25.8125H19.312L10.2277 11.325H6.50508V29.6H9.27482V20.05C9.25788 19.45 9.2367 18.8583 9.21129 18.275C9.19435 17.6917 9.16894 17.125 9.13506 16.575C9.10965 16.025 9.08 15.5042 9.04612 15.0125H9.16047L18.2574 29.6ZM24.5424 11.325V29.6H27.5917V11.325H24.5424ZM41.7667 29.6H44.8032V11.325H41.7667V18.8H33.2033V11.325H30.1541V29.6H33.2033V21.35H41.7667V29.6Z" fill="#606368"/>
<path d="M84.5611 38.0305H77.2986V9.76396H67.998V3.70685H93.8616V9.76396H84.5611V38.0305Z" fill="#524F81"/>
<path d="M113.189 11.29C113.548 11.29 113.962 11.3135 114.431 11.3604C114.915 11.3917 115.305 11.4387 115.602 11.5013L115.063 18.2157C114.829 18.1375 114.493 18.0827 114.056 18.0514C113.634 18.0044 113.267 17.981 112.955 17.981C112.033 17.981 111.135 18.0984 110.261 18.3331C109.402 18.5679 108.629 18.9514 107.941 19.4835C107.254 20 106.708 20.6887 106.301 21.5495C105.911 22.3947 105.716 23.4355 105.716 24.672V38.0305H98.5705V11.783H103.982L105.036 16.1967H105.388C105.903 15.3046 106.544 14.4907 107.309 13.7551C108.09 13.0038 108.972 12.4091 109.956 11.9708C110.956 11.5169 112.033 11.29 113.189 11.29Z" fill="#524F81"/>
<path d="M131.087 11.243C134.601 11.243 137.296 12.0099 139.17 13.5438C141.044 15.0776 141.981 17.4097 141.981 20.54V38.0305H136.991L135.609 34.4619H135.421C134.672 35.401 133.906 36.1679 133.126 36.7627C132.345 37.3574 131.447 37.7957 130.431 38.0774C129.416 38.3591 128.182 38.5 126.73 38.5C125.184 38.5 123.794 38.2026 122.56 37.6079C121.342 37.0131 120.381 36.1053 119.678 34.8845C118.976 33.6481 118.624 32.0829 118.624 30.1891C118.624 27.4031 119.6 25.3528 121.553 24.0381C123.505 22.7077 126.433 21.9721 130.338 21.8312L134.883 21.6904V20.54C134.883 19.1626 134.523 18.1531 133.805 17.5114C133.087 16.8697 132.087 16.5489 130.806 16.5489C129.541 16.5489 128.3 16.7288 127.081 17.0888C125.863 17.4488 124.645 17.9027 123.427 18.4505L121.061 13.6142C122.451 12.8786 124.005 12.2995 125.723 11.8769C127.456 11.4543 129.244 11.243 131.087 11.243ZM134.883 25.8693L132.118 25.9632C129.807 26.0258 128.198 26.4406 127.292 27.2075C126.402 27.9744 125.957 28.9839 125.957 30.236C125.957 31.3316 126.277 32.1142 126.917 32.5838C127.558 33.0376 128.393 33.2646 129.424 33.2646C130.955 33.2646 132.243 32.8107 133.29 31.9029C134.352 30.9951 134.883 29.7039 134.883 28.0292V25.8693Z" fill="#524F81"/>
<path d="M164.237 11.29C167.032 11.29 169.282 12.0569 170.984 13.5907C172.686 15.1089 173.537 17.5506 173.537 20.9156V38.0305H166.392V22.6999C166.392 20.8217 166.049 19.4052 165.361 18.4505C164.69 17.4958 163.628 17.0184 162.175 17.0184C159.989 17.0184 158.497 17.7618 157.701 19.2487C156.904 20.7356 156.506 22.8799 156.506 25.6815V38.0305H149.361V11.783H154.819L155.78 15.1402H156.178C156.74 14.2324 157.435 13.4968 158.263 12.9334C159.106 12.3699 160.036 11.9552 161.051 11.6891C162.082 11.423 163.144 11.29 164.237 11.29Z" fill="#524F81"/>
<path d="M199.167 30.236C199.167 32.0203 198.745 33.5307 197.902 34.7671C197.074 35.9879 195.832 36.9192 194.177 37.5609C192.521 38.187 190.46 38.5 187.992 38.5C186.165 38.5 184.595 38.3826 183.283 38.1478C181.987 37.9131 180.675 37.5218 179.347 36.974V31.0577C180.769 31.6994 182.291 32.2316 183.916 32.6542C185.556 33.0611 186.992 33.2646 188.226 33.2646C189.616 33.2646 190.608 33.0611 191.202 32.6542C191.811 32.2316 192.115 31.6838 192.115 31.0108C192.115 30.5725 191.99 30.1813 191.74 29.8369C191.506 29.4769 190.991 29.0778 190.194 28.6396C189.398 28.1857 188.148 27.5988 186.446 26.8788C184.806 26.1901 183.455 25.4937 182.393 24.7893C181.346 24.085 180.566 23.2555 180.05 22.3008C179.55 21.3304 179.301 20.1017 179.301 18.6148C179.301 16.1889 180.238 14.3655 182.112 13.1447C184.002 11.9082 186.524 11.29 189.679 11.29C191.303 11.29 192.849 11.4543 194.317 11.783C195.801 12.1117 197.324 12.636 198.886 13.356L196.73 18.5209C195.434 17.9575 194.208 17.4958 193.052 17.1358C191.912 16.7758 190.749 16.5958 189.562 16.5958C188.515 16.5958 187.726 16.7367 187.195 17.0184C186.664 17.3001 186.399 17.7305 186.399 18.3096C186.399 18.7322 186.532 19.1079 186.797 19.4365C187.078 19.7652 187.609 20.133 188.39 20.54C189.187 20.9313 190.35 21.4399 191.881 22.066C193.365 22.6764 194.653 23.3181 195.746 23.9911C196.84 24.6485 197.683 25.4702 198.277 26.4562C198.87 27.4266 199.167 28.6865 199.167 30.236Z" fill="#524F81"/>
<path d="M211.888 38.0305H204.742V1.5H211.888V38.0305Z" fill="#524F81"/>
<path d="M230.137 11.243C233.652 11.243 236.346 12.0099 238.22 13.5438C240.094 15.0776 241.031 17.4097 241.031 20.54V38.0305H236.041L234.659 34.4619H234.471C233.722 35.401 232.957 36.1679 232.176 36.7627C231.395 37.3574 230.497 37.7957 229.482 38.0774C228.466 38.3591 227.233 38.5 225.78 38.5C224.234 38.5 222.844 38.2026 221.61 37.6079C220.392 37.0131 219.431 36.1053 218.728 34.8845C218.026 33.6481 217.674 32.0829 217.674 30.1891C217.674 27.4031 218.65 25.3528 220.603 24.0381C222.555 22.7077 225.483 21.9721 229.388 21.8312L233.933 21.6904V20.54C233.933 19.1626 233.573 18.1531 232.855 17.5114C232.137 16.8697 231.137 16.5489 229.856 16.5489C228.591 16.5489 227.35 16.7288 226.131 17.0888C224.913 17.4488 223.695 17.9027 222.477 18.4505L220.111 13.6142C221.501 12.8786 223.055 12.2995 224.773 11.8769C226.506 11.4543 228.295 11.243 230.137 11.243ZM233.933 25.8693L231.168 25.9632C228.857 26.0258 227.248 26.4406 226.342 27.2075C225.452 27.9744 225.007 28.9839 225.007 30.236C225.007 31.3316 225.327 32.1142 225.967 32.5838C226.608 33.0376 227.443 33.2646 228.474 33.2646C230.005 33.2646 231.293 32.8107 232.34 31.9029C233.402 30.9951 233.933 29.7039 233.933 28.0292V25.8693Z" fill="#524F81"/>
<path d="M259.445 32.7951C260.226 32.7951 260.983 32.7168 261.717 32.5603C262.467 32.4038 263.209 32.2081 263.943 31.9734V37.3027C263.178 37.647 262.225 37.9287 261.085 38.1478C259.96 38.3826 258.726 38.5 257.383 38.5C255.821 38.5 254.416 38.2496 253.166 37.7487C251.933 37.2322 250.956 36.3479 250.238 35.0958C249.535 33.828 249.184 32.0673 249.184 29.8135V17.1593H245.763V14.1307L249.699 11.736L251.761 6.19543H256.329V11.783H263.662V17.1593H256.329V29.8135C256.329 30.8151 256.61 31.5664 257.172 32.0673C257.75 32.5525 258.508 32.7951 259.445 32.7951Z" fill="#524F81"/>
<path d="M293.063 24.8598C293.063 27.051 292.766 28.9918 292.173 30.6821C291.595 32.3725 290.744 33.8046 289.619 34.9784C288.51 36.1366 287.167 37.0131 285.59 37.6079C284.028 38.2026 282.263 38.5 280.295 38.5C278.452 38.5 276.758 38.2026 275.211 37.6079C273.681 37.0131 272.345 36.1366 271.205 34.9784C270.081 33.8046 269.206 32.3725 268.581 30.6821C267.972 28.9918 267.668 27.051 267.668 24.8598C267.668 21.9486 268.183 19.4835 269.214 17.4645C270.245 15.4454 271.713 13.9116 273.618 12.8629C275.524 11.8143 277.796 11.29 280.436 11.29C282.888 11.29 285.059 11.8143 286.948 12.8629C288.854 13.9116 290.345 15.4454 291.423 17.4645C292.516 19.4835 293.063 21.9486 293.063 24.8598ZM274.954 24.8598C274.954 26.5814 275.141 28.0292 275.516 29.203C275.891 30.3769 276.476 31.2612 277.273 31.856C278.069 32.4507 279.108 32.7481 280.389 32.7481C281.654 32.7481 282.677 32.4507 283.458 31.856C284.254 31.2612 284.832 30.3769 285.191 29.203C285.566 28.0292 285.754 26.5814 285.754 24.8598C285.754 23.1225 285.566 21.6825 285.191 20.54C284.832 19.3818 284.254 18.5131 283.458 17.934C282.661 17.3549 281.623 17.0654 280.342 17.0654C278.452 17.0654 277.078 17.7149 276.219 19.014C275.375 20.313 274.954 22.2616 274.954 24.8598Z" fill="#524F81"/>
<path d="M313.585 11.29C313.944 11.29 314.358 11.3135 314.827 11.3604C315.311 11.3917 315.701 11.4387 315.998 11.5013L315.459 18.2157C315.225 18.1375 314.889 18.0827 314.452 18.0514C314.03 18.0044 313.663 17.981 313.351 17.981C312.429 17.981 311.531 18.0984 310.657 18.3331C309.798 18.5679 309.025 18.9514 308.337 19.4835C307.65 20 307.104 20.6887 306.697 21.5495C306.307 22.3947 306.112 23.4355 306.112 24.672V38.0305H298.966V11.783H304.378L305.432 16.1967H305.784C306.299 15.3046 306.94 14.4907 307.705 13.7551C308.486 13.0038 309.368 12.4091 310.352 11.9708C311.352 11.5169 312.429 11.29 313.585 11.29Z" fill="#524F81"/>
<path d="M7.58339 53.1326H5.27972L1.56111 46.6867H1.50849C1.52408 46.9548 1.53773 47.2249 1.54942 47.4968C1.56111 47.7688 1.57281 48.0408 1.5845 48.3128C1.5962 48.5809 1.60789 48.8509 1.61958 49.1229V53.1326H0V44.6119H2.28613L5.99889 50.9937H6.03982C6.03202 50.7295 6.02228 50.4672 6.01058 50.2069C5.99889 49.9466 5.9872 49.6863 5.9755 49.4259C5.96771 49.1656 5.95991 48.9053 5.95212 48.645V44.6119H7.58339V53.1326Z" fill="#606368"/>
<path d="M12.2784 46.4828C13.1555 46.4828 13.8279 46.6731 14.2956 47.0539C14.7634 47.4347 14.9972 48.0136 14.9972 48.7907V53.1326H13.7518L13.4069 52.2467H13.3601C13.173 52.4798 12.982 52.6702 12.7871 52.8179C12.5922 52.9655 12.3681 53.0743 12.1147 53.1442C11.8614 53.2142 11.5534 53.2492 11.1909 53.2492C10.805 53.2492 10.4581 53.1753 10.1502 53.0277C9.84613 52.88 9.60641 52.6547 9.431 52.3516C9.2556 52.0447 9.16789 51.6561 9.16789 51.186C9.16789 50.4944 9.41151 49.9854 9.89875 49.6591C10.386 49.3288 11.1169 49.1462 12.0913 49.1112L13.2256 49.0763V48.7907C13.2256 48.4488 13.136 48.1982 12.9567 48.0389C12.7774 47.8796 12.5279 47.7999 12.2083 47.7999C11.8925 47.7999 11.5827 47.8446 11.2786 47.9339C10.9746 48.0233 10.6705 48.136 10.3665 48.272L9.77597 47.0714C10.1229 46.8888 10.5107 46.745 10.9395 46.6401C11.3722 46.5352 11.8185 46.4828 12.2784 46.4828ZM13.2256 50.1136L12.5357 50.137C11.9588 50.1525 11.5573 50.2555 11.3312 50.4458C11.1091 50.6362 10.998 50.8868 10.998 51.1977C10.998 51.4696 11.0779 51.6639 11.2377 51.7805C11.3975 51.8932 11.606 51.9495 11.8633 51.9495C12.2453 51.9495 12.5669 51.8368 12.828 51.6115C13.0931 51.3861 13.2256 51.0656 13.2256 50.6498V50.1136Z" fill="#606368"/>
<path d="M19.5929 51.8329C19.7878 51.8329 19.9768 51.8135 20.16 51.7746C20.3471 51.7358 20.5323 51.6872 20.7155 51.6289V52.9519C20.5245 53.0374 20.2867 53.1073 20.0021 53.1617C19.7215 53.22 19.4136 53.2492 19.0783 53.2492C18.6885 53.2492 18.3377 53.187 18.0259 53.0627C17.718 52.9344 17.4743 52.7149 17.295 52.4041C17.1196 52.0894 17.0319 51.6523 17.0319 51.0928V47.9514H16.1783V47.1996L17.1606 46.6051L17.6751 45.2297H18.8152V46.6168H20.6453V47.9514H18.8152V51.0928C18.8152 51.3414 18.8854 51.5279 19.0257 51.6523C19.1699 51.7727 19.359 51.8329 19.5929 51.8329Z" fill="#606368"/>
<path d="M23.826 46.6168V53.1326H22.0427V46.6168H23.826ZM22.9373 44.0641C23.2023 44.0641 23.4304 44.1263 23.6214 44.2506C23.8124 44.3711 23.9079 44.5983 23.9079 44.9325C23.9079 45.2627 23.8124 45.492 23.6214 45.6202C23.4304 45.7445 23.2023 45.8067 22.9373 45.8067C22.6683 45.8067 22.4383 45.7445 22.2473 45.6202C22.0602 45.492 21.9667 45.2627 21.9667 44.9325C21.9667 44.5983 22.0602 44.3711 22.2473 44.2506C22.4383 44.1263 22.6683 44.0641 22.9373 44.0641Z" fill="#606368"/>
<path d="M31.6433 49.863C31.6433 50.407 31.5692 50.8888 31.4211 51.3084C31.2769 51.728 31.0644 52.0835 30.7838 52.3749C30.507 52.6625 30.1718 52.88 29.7781 53.0277C29.3883 53.1753 28.9479 53.2492 28.4567 53.2492C27.9968 53.2492 27.5738 53.1753 27.188 53.0277C26.806 52.88 26.4727 52.6625 26.1881 52.3749C25.9075 52.0835 25.6892 51.728 25.5333 51.3084C25.3813 50.8888 25.3053 50.407 25.3053 49.863C25.3053 49.1404 25.4339 48.5284 25.6912 48.0272C25.9484 47.526 26.3148 47.1452 26.7904 46.8849C27.2659 46.6246 27.8331 46.4944 28.4918 46.4944C29.1038 46.4944 29.6456 46.6246 30.1172 46.8849C30.5928 47.1452 30.965 47.526 31.234 48.0272C31.5068 48.5284 31.6433 49.1404 31.6433 49.863ZM27.1236 49.863C27.1236 50.2904 27.1704 50.6498 27.264 50.9412C27.3575 51.2326 27.5037 51.4522 27.7025 51.5998C27.9013 51.7474 28.1605 51.8213 28.4801 51.8213C28.7958 51.8213 29.0512 51.7474 29.246 51.5998C29.4448 51.4522 29.5891 51.2326 29.6787 50.9412C29.7723 50.6498 29.819 50.2904 29.819 49.863C29.819 49.4318 29.7723 49.0743 29.6787 48.7907C29.5891 48.5032 29.4448 48.2875 29.246 48.1438C29.0473 48 28.788 47.9281 28.4684 47.9281C27.9968 47.9281 27.6538 48.0894 27.4394 48.4119C27.2289 48.7343 27.1236 49.2181 27.1236 49.863Z" fill="#606368"/>
<path d="M36.8294 46.4944C37.5272 46.4944 38.0885 46.6848 38.5133 47.0656C38.9382 47.4424 39.1507 48.0486 39.1507 48.8839V53.1326H37.3674V49.3269C37.3674 48.8606 37.2816 48.509 37.1101 48.272C36.9425 48.035 36.6774 47.9165 36.3149 47.9165C35.7692 47.9165 35.397 48.101 35.1982 48.4701C34.9994 48.8392 34.9 49.3715 34.9 50.067V53.1326H33.1167V46.6168H34.479L34.7187 47.4502H34.8181C34.9584 47.2249 35.1319 47.0423 35.3385 46.9024C35.549 46.7625 35.7809 46.6595 36.0343 46.5935C36.2915 46.5274 36.5566 46.4944 36.8294 46.4944Z" fill="#606368"/>
<path d="M43.6644 46.4828C44.5415 46.4828 45.2139 46.6731 45.6816 47.0539C46.1494 47.4347 46.3832 48.0136 46.3832 48.7907V53.1326H45.1378L44.7929 52.2467H44.7461C44.559 52.4798 44.368 52.6702 44.1731 52.8179C43.9782 52.9655 43.7541 53.0743 43.5007 53.1442C43.2474 53.2142 42.9394 53.2492 42.5769 53.2492C42.191 53.2492 41.8441 53.1753 41.5362 53.0277C41.2321 52.88 40.9924 52.6547 40.817 52.3516C40.6416 52.0447 40.5539 51.6561 40.5539 51.186C40.5539 50.4944 40.7975 49.9854 41.2848 49.6591C41.772 49.3288 42.5029 49.1462 43.4773 49.1112L44.6116 49.0763V48.7907C44.6116 48.4488 44.522 48.1982 44.3427 48.0389C44.1634 47.8796 43.9139 47.7999 43.5943 47.7999C43.2785 47.7999 42.9687 47.8446 42.6646 47.9339C42.3606 48.0233 42.0565 48.136 41.7525 48.272L41.162 47.0714C41.5089 46.8888 41.8967 46.745 42.3255 46.6401C42.7582 46.5352 43.2045 46.4828 43.6644 46.4828ZM44.6116 50.1136L43.9217 50.137C43.3448 50.1525 42.9433 50.2555 42.7172 50.4458C42.4951 50.6362 42.384 50.8868 42.384 51.1977C42.384 51.4696 42.4639 51.6639 42.6237 51.7805C42.7835 51.8932 42.992 51.9495 43.2493 51.9495C43.6313 51.9495 43.9529 51.8368 44.214 51.6115C44.4791 51.3861 44.6116 51.0656 44.6116 50.6498V50.1136Z" fill="#606368"/>
<path d="M50.0083 53.1326H48.225V44.0641H50.0083V53.1326Z" fill="#606368"/>
<path d="M58.7669 45.9932C58.42 45.9932 58.1121 46.0612 57.8431 46.1972C57.578 46.3293 57.3539 46.5216 57.1707 46.7742C56.9914 47.0267 56.855 47.3317 56.7614 47.6892C56.6679 48.0466 56.6211 48.4488 56.6211 48.8956C56.6211 49.4978 56.6952 50.0126 56.8433 50.44C56.9953 50.8635 57.2292 51.188 57.5449 51.4133C57.8606 51.6348 58.268 51.7455 58.7669 51.7455C59.1138 51.7455 59.4607 51.7067 59.8076 51.6289C60.1585 51.5512 60.5385 51.4405 60.9478 51.2967V52.812C60.5697 52.9675 60.1974 53.0782 59.831 53.1442C59.4646 53.2142 59.0534 53.2492 58.5973 53.2492C57.7164 53.2492 56.9914 53.0685 56.4223 52.7071C55.8571 52.3419 55.4381 51.8329 55.1652 51.1802C54.8924 50.5236 54.756 49.7581 54.756 48.8839C54.756 48.239 54.8437 47.6484 55.0191 47.1122C55.1945 46.576 55.4517 46.1117 55.7908 45.7193C56.13 45.3269 56.549 45.0238 57.0479 44.8101C57.5469 44.5964 58.1199 44.4896 58.7669 44.4896C59.1918 44.4896 59.6166 44.544 60.0415 44.6527C60.4703 44.7576 60.8796 44.9034 61.2694 45.0898L60.6847 46.5585C60.365 46.407 60.0435 46.2749 59.7199 46.1622C59.3964 46.0495 59.0787 45.9932 58.7669 45.9932Z" fill="#606368"/>
<path d="M65.3271 46.4944C65.9313 46.4944 66.4516 46.611 66.8882 46.8441C67.3248 47.0733 67.6619 47.4075 67.8997 47.8465C68.1375 48.2856 68.2564 48.8218 68.2564 49.4551V50.3176H64.0408C64.0603 50.8188 64.2103 51.2132 64.491 51.5007C64.7755 51.7844 65.1692 51.9262 65.6721 51.9262C66.0891 51.9262 66.4711 51.8834 66.818 51.798C67.165 51.7125 67.5216 51.5843 67.888 51.4133V52.7887C67.5645 52.948 67.2254 53.0646 66.8707 53.1384C66.5199 53.2122 66.093 53.2492 65.5902 53.2492C64.9354 53.2492 64.3546 53.1287 63.8478 52.8878C63.345 52.6469 62.9494 52.2797 62.6609 51.7863C62.3764 51.2929 62.2341 50.6712 62.2341 49.9213C62.2341 49.1598 62.3627 48.5265 62.62 48.0214C62.8812 47.5124 63.2437 47.1316 63.7075 46.8791C64.1714 46.6226 64.7112 46.4944 65.3271 46.4944ZM65.3388 47.7591C64.9919 47.7591 64.7034 47.8698 64.4734 48.0913C64.2474 48.3128 64.1168 48.6605 64.0817 49.1345H66.5842C66.5803 48.8703 66.5315 48.6353 66.438 48.4293C66.3483 48.2234 66.2119 48.0602 66.0287 47.9398C65.8494 47.8193 65.6194 47.7591 65.3388 47.7591Z" fill="#606368"/>
<path d="M73.4192 46.4944C74.1169 46.4944 74.6782 46.6848 75.1031 47.0656C75.5279 47.4424 75.7404 48.0486 75.7404 48.8839V53.1326H73.9571V49.3269C73.9571 48.8606 73.8713 48.509 73.6998 48.272C73.5322 48.035 73.2671 47.9165 72.9046 47.9165C72.3589 47.9165 71.9867 48.101 71.7879 48.4701C71.5891 48.8392 71.4897 49.3715 71.4897 50.067V53.1326H69.7064V46.6168H71.0687L71.3084 47.4502H71.4078C71.5482 47.2249 71.7216 47.0423 71.9282 46.9024C72.1387 46.7625 72.3706 46.6595 72.624 46.5935C72.8812 46.5274 73.1463 46.4944 73.4192 46.4944Z" fill="#606368"/>
<path d="M80.3302 51.8329C80.5251 51.8329 80.7141 51.8135 80.8973 51.7746C81.0844 51.7358 81.2696 51.6872 81.4528 51.6289V52.9519C81.2618 53.0374 81.024 53.1073 80.7394 53.1617C80.4588 53.22 80.1509 53.2492 79.8156 53.2492C79.4258 53.2492 79.075 53.187 78.7632 53.0627C78.4553 52.9344 78.2116 52.7149 78.0323 52.4041C77.8569 52.0894 77.7692 51.6523 77.7692 51.0928V47.9514H76.9156V47.1996L77.8979 46.6051L78.4124 45.2297H79.5525V46.6168H81.3826V47.9514H79.5525V51.0928C79.5525 51.3414 79.6227 51.5279 79.763 51.6523C79.9072 51.7727 80.0963 51.8329 80.3302 51.8329Z" fill="#606368"/>
<path d="M85.4754 46.4944C86.0796 46.4944 86.6 46.611 87.0365 46.8441C87.4731 47.0733 87.8103 47.4075 88.048 47.8465C88.2858 48.2856 88.4047 48.8218 88.4047 49.4551V50.3176H84.1891C84.2086 50.8188 84.3587 51.2132 84.6393 51.5007C84.9239 51.7844 85.3175 51.9262 85.8204 51.9262C86.2375 51.9262 86.6194 51.8834 86.9664 51.798C87.3133 51.7125 87.6699 51.5843 88.0363 51.4133V52.7887C87.7128 52.948 87.3737 53.0646 87.019 53.1384C86.6682 53.2122 86.2413 53.2492 85.7385 53.2492C85.0837 53.2492 84.5029 53.1287 83.9962 52.8878C83.4933 52.6469 83.0977 52.2797 82.8092 51.7863C82.5247 51.2929 82.3824 50.6712 82.3824 49.9213C82.3824 49.1598 82.511 48.5265 82.7683 48.0214C83.0295 47.5124 83.392 47.1316 83.8558 46.8791C84.3197 46.6226 84.8595 46.4944 85.4754 46.4944ZM85.4871 47.7591C85.1402 47.7591 84.8517 47.8698 84.6218 48.0913C84.3957 48.3128 84.2651 48.6605 84.23 49.1345H86.7325C86.7286 48.8703 86.6799 48.6353 86.5863 48.4293C86.4967 48.2234 86.3602 48.0602 86.177 47.9398C85.9977 47.8193 85.7678 47.7591 85.4871 47.7591Z" fill="#606368"/>
<path d="M93.5032 46.4944C93.5928 46.4944 93.6961 46.5002 93.813 46.5119C93.9339 46.5197 94.0313 46.5313 94.1054 46.5469L93.9709 48.2137C93.9124 48.1943 93.8286 48.1807 93.7195 48.1729C93.6143 48.1612 93.5227 48.1554 93.4447 48.1554C93.2147 48.1554 92.9906 48.1846 92.7723 48.2428C92.5579 48.3011 92.365 48.3963 92.1935 48.5284C92.022 48.6566 91.8855 48.8276 91.7842 49.0413C91.6867 49.2511 91.638 49.5095 91.638 49.8164V53.1326H89.8547V46.6168H91.2053L91.4685 47.7125H91.5562C91.6848 47.491 91.8446 47.289 92.0356 47.1064C92.2305 46.9199 92.4507 46.7722 92.6963 46.6634C92.9458 46.5508 93.2147 46.4944 93.5032 46.4944Z" fill="#606368"/>
<path d="M102.016 47.9514H100.473V53.1326H98.6893V47.9514H97.7071V47.0947L98.6893 46.6168V46.1389C98.6893 45.5833 98.7829 45.152 98.97 44.8451C99.161 44.5342 99.428 44.3167 99.771 44.1923C100.118 44.0641 100.527 44 100.999 44C101.346 44 101.661 44.0291 101.946 44.0874C102.231 44.1418 102.463 44.204 102.642 44.2739L102.186 45.5794C102.049 45.5367 101.901 45.4978 101.741 45.4628C101.582 45.4279 101.398 45.4104 101.192 45.4104C100.942 45.4104 100.759 45.4862 100.642 45.6377C100.529 45.7853 100.473 45.9757 100.473 46.2088V46.6168H102.016V47.9514Z" fill="#606368"/>
<path d="M108.986 49.863C108.986 50.407 108.912 50.8888 108.763 51.3084C108.619 51.728 108.407 52.0835 108.126 52.3749C107.849 52.6625 107.514 52.88 107.121 53.0277C106.731 53.1753 106.29 53.2492 105.799 53.2492C105.339 53.2492 104.916 53.1753 104.53 53.0277C104.148 52.88 103.815 52.6625 103.531 52.3749C103.25 52.0835 103.032 51.728 102.876 51.3084C102.724 50.8888 102.648 50.407 102.648 49.863C102.648 49.1404 102.776 48.5284 103.034 48.0272C103.291 47.526 103.657 47.1452 104.133 46.8849C104.608 46.6246 105.175 46.4944 105.834 46.4944C106.446 46.4944 106.988 46.6246 107.46 46.8849C107.935 47.1452 108.307 47.526 108.576 48.0272C108.849 48.5284 108.986 49.1404 108.986 49.863ZM104.466 49.863C104.466 50.2904 104.513 50.6498 104.606 50.9412C104.7 51.2326 104.846 51.4522 105.045 51.5998C105.244 51.7474 105.503 51.8213 105.823 51.8213C106.138 51.8213 106.394 51.7474 106.588 51.5998C106.787 51.4522 106.931 51.2326 107.021 50.9412C107.115 50.6498 107.161 50.2904 107.161 49.863C107.161 49.4318 107.115 49.0743 107.021 48.7907C106.931 48.5032 106.787 48.2875 106.588 48.1438C106.39 48 106.13 47.9281 105.811 47.9281C105.339 47.9281 104.996 48.0894 104.782 48.4119C104.571 48.7343 104.466 49.2181 104.466 49.863Z" fill="#606368"/>
<path d="M114.108 46.4944C114.197 46.4944 114.3 46.5002 114.417 46.5119C114.538 46.5197 114.636 46.5313 114.71 46.5469L114.575 48.2137C114.517 48.1943 114.433 48.1807 114.324 48.1729C114.219 48.1612 114.127 48.1554 114.049 48.1554C113.819 48.1554 113.595 48.1846 113.377 48.2428C113.162 48.3011 112.969 48.3963 112.798 48.5284C112.626 48.6566 112.49 48.8276 112.389 49.0413C112.291 49.2511 112.242 49.5095 112.242 49.8164V53.1326H110.459V46.6168H111.81L112.073 47.7125H112.161C112.289 47.491 112.449 47.289 112.64 47.1064C112.835 46.9199 113.055 46.7722 113.301 46.6634C113.55 46.5508 113.819 46.4944 114.108 46.4944Z" fill="#606368"/>
<path d="M124.38 53.1326L123.761 51.1044H120.644L120.025 53.1326H118.072L121.089 44.577H123.305L126.333 53.1326H124.38ZM123.328 49.5891L122.708 47.6076C122.669 47.4755 122.617 47.3065 122.55 47.1005C122.488 46.8907 122.424 46.679 122.357 46.4653C122.295 46.2477 122.244 46.0593 122.205 45.9C122.166 46.0593 122.112 46.2574 122.042 46.4944C121.975 46.7275 121.911 46.949 121.849 47.1588C121.786 47.3686 121.742 47.5182 121.714 47.6076L121.1 49.5891H123.328Z" fill="#606368"/>
<path d="M129.344 53.2492C128.616 53.2492 128.021 52.9655 127.561 52.3983C127.105 51.8271 126.877 50.9898 126.877 49.8864C126.877 48.7712 127.109 47.9281 127.573 47.357C128.037 46.7819 128.643 46.4944 129.391 46.4944C129.703 46.4944 129.978 46.5372 130.216 46.6226C130.453 46.7081 130.658 46.8227 130.83 46.9665C131.005 47.1102 131.153 47.2715 131.274 47.4502H131.332C131.309 47.3259 131.28 47.1433 131.245 46.9024C131.214 46.6576 131.198 46.407 131.198 46.1506V44.0641H132.987V53.1326H131.619L131.274 52.2875H131.198C131.085 52.4662 130.943 52.6294 130.771 52.7771C130.604 52.9208 130.403 53.0355 130.169 53.1209C129.935 53.2064 129.66 53.2492 129.344 53.2492ZM129.97 51.8329C130.457 51.8329 130.8 51.6892 130.999 51.4017C131.202 51.1102 131.309 50.6731 131.321 50.0903V49.898C131.321 49.2647 131.223 48.781 131.028 48.4468C130.833 48.1088 130.471 47.9398 129.941 47.9398C129.547 47.9398 129.239 48.1088 129.017 48.4468C128.795 48.7848 128.684 49.2725 128.684 49.9097C128.684 50.5469 128.795 51.0267 129.017 51.3492C129.243 51.6717 129.561 51.8329 129.97 51.8329Z" fill="#606368"/>
<path d="M136.408 53.1326L133.917 46.6168H135.782L137.045 50.3293C137.115 50.5469 137.17 50.7761 137.209 51.017C137.251 51.2579 137.281 51.4735 137.296 51.6639H137.343C137.355 51.458 137.382 51.2385 137.425 51.0053C137.472 50.7722 137.532 50.5469 137.606 50.3293L138.863 46.6168H140.728L138.238 53.1326H136.408Z" fill="#606368"/>
<path d="M144.348 46.4828C145.225 46.4828 145.897 46.6731 146.365 47.0539C146.832 47.4347 147.066 48.0136 147.066 48.7907V53.1326H145.821L145.476 52.2467H145.429C145.242 52.4798 145.051 52.6702 144.856 52.8179C144.661 52.9655 144.437 53.0743 144.184 53.1442C143.93 53.2142 143.623 53.2492 143.26 53.2492C142.874 53.2492 142.527 53.1753 142.219 53.0277C141.915 52.88 141.676 52.6547 141.5 52.3516C141.325 52.0447 141.237 51.6561 141.237 51.186C141.237 50.4944 141.481 49.9854 141.968 49.6591C142.455 49.3288 143.186 49.1462 144.16 49.1112L145.295 49.0763V48.7907C145.295 48.4488 145.205 48.1982 145.026 48.0389C144.846 47.8796 144.597 47.7999 144.277 47.7999C143.962 47.7999 143.652 47.8446 143.348 47.9339C143.044 48.0233 142.74 48.136 142.436 48.272L141.845 47.0714C142.192 46.8888 142.58 46.745 143.009 46.6401C143.441 46.5352 143.888 46.4828 144.348 46.4828ZM145.295 50.1136L144.605 50.137C144.028 50.1525 143.626 50.2555 143.4 50.4458C143.178 50.6362 143.067 50.8868 143.067 51.1977C143.067 51.4696 143.147 51.6639 143.307 51.7805C143.467 51.8932 143.675 51.9495 143.932 51.9495C144.314 51.9495 144.636 51.8368 144.897 51.6115C145.162 51.3861 145.295 51.0656 145.295 50.6498V50.1136Z" fill="#606368"/>
<path d="M152.621 46.4944C153.319 46.4944 153.88 46.6848 154.305 47.0656C154.73 47.4424 154.942 48.0486 154.942 48.8839V53.1326H153.159V49.3269C153.159 48.8606 153.073 48.509 152.902 48.272C152.734 48.035 152.469 47.9165 152.106 47.9165C151.561 47.9165 151.188 48.101 150.99 48.4701C150.791 48.8392 150.691 49.3715 150.691 50.067V53.1326H148.908V46.6168H150.27L150.51 47.4502H150.61C150.75 47.2249 150.923 47.0423 151.13 46.9024C151.34 46.7625 151.572 46.6595 151.826 46.5935C152.083 46.5274 152.348 46.4944 152.621 46.4944Z" fill="#606368"/>
<path d="M159.432 53.2492C158.785 53.2492 158.234 53.1326 157.778 52.8995C157.322 52.6625 156.975 52.2972 156.737 51.8038C156.499 51.3103 156.38 50.679 156.38 49.9097C156.38 49.1132 156.515 48.4643 156.784 47.9631C157.057 47.458 157.433 47.0869 157.912 46.8499C158.396 46.6129 158.955 46.4944 159.59 46.4944C160.043 46.4944 160.432 46.5391 160.76 46.6285C161.091 46.7139 161.38 46.8169 161.625 46.9373L161.099 48.3128C160.818 48.2001 160.557 48.1088 160.315 48.0389C160.074 47.965 159.832 47.9281 159.59 47.9281C159.279 47.9281 159.019 48.0019 158.813 48.1496C158.606 48.2933 158.452 48.5109 158.351 48.8023C158.249 49.0937 158.199 49.459 158.199 49.898C158.199 50.3293 158.253 50.6867 158.363 50.9704C158.472 51.254 158.63 51.4658 158.836 51.6056C159.043 51.7416 159.294 51.8096 159.59 51.8096C159.961 51.8096 160.29 51.761 160.578 51.6639C160.867 51.5629 161.148 51.423 161.42 51.2443V52.7654C161.148 52.9364 160.861 53.0588 160.561 53.1326C160.265 53.2103 159.889 53.2492 159.432 53.2492Z" fill="#606368"/>
<path d="M164.724 46.6168V53.1326H162.941V46.6168H164.724ZM163.835 44.0641C164.1 44.0641 164.328 44.1263 164.519 44.2506C164.71 44.3711 164.806 44.5983 164.806 44.9325C164.806 45.2627 164.71 45.492 164.519 45.6202C164.328 45.7445 164.1 45.8067 163.835 45.8067C163.566 45.8067 163.336 45.7445 163.145 45.6202C162.958 45.492 162.865 45.2627 162.865 44.9325C162.865 44.5983 162.958 44.3711 163.145 44.2506C163.336 44.1263 163.566 44.0641 163.835 44.0641Z" fill="#606368"/>
<path d="M170.314 46.4944C171.011 46.4944 171.573 46.6848 171.997 47.0656C172.422 47.4424 172.635 48.0486 172.635 48.8839V53.1326H170.851V49.3269C170.851 48.8606 170.766 48.509 170.594 48.272C170.427 48.035 170.161 47.9165 169.799 47.9165C169.253 47.9165 168.881 48.101 168.682 48.4701C168.483 48.8392 168.384 49.3715 168.384 50.067V53.1326H166.601V46.6168H167.963L168.203 47.4502H168.302C168.443 47.2249 168.616 47.0423 168.823 46.9024C169.033 46.7625 169.265 46.6595 169.518 46.5935C169.776 46.5274 170.041 46.4944 170.314 46.4944Z" fill="#606368"/>
<path d="M176.383 56C175.47 56 174.773 55.8407 174.289 55.5221C173.81 55.2074 173.57 54.7644 173.57 54.1933C173.57 53.8009 173.693 53.4726 173.939 53.2084C174.184 52.9441 174.545 52.7557 175.02 52.643C174.837 52.5653 174.677 52.439 174.541 52.2642C174.404 52.0855 174.336 51.897 174.336 51.6989C174.336 51.4502 174.408 51.2443 174.552 51.0811C174.697 50.914 174.905 50.7508 175.178 50.5915C174.835 50.4439 174.562 50.2069 174.36 49.8805C174.161 49.5542 174.061 49.1695 174.061 48.7266C174.061 48.2525 174.165 47.8504 174.371 47.5202C174.582 47.186 174.886 46.9315 175.283 46.7567C175.685 46.5818 176.172 46.4944 176.745 46.4944C176.866 46.4944 177.006 46.5022 177.166 46.5177C177.326 46.5333 177.472 46.5508 177.605 46.5702C177.741 46.5896 177.833 46.6051 177.879 46.6168H180.16V47.5202L179.136 47.7824C179.23 47.9262 179.3 48.0797 179.347 48.2428C179.394 48.406 179.417 48.5789 179.417 48.7615C179.417 49.4609 179.172 50.0068 178.68 50.3992C178.193 50.7878 177.515 50.982 176.646 50.982C176.439 50.9704 176.244 50.9548 176.061 50.9354C175.971 51.0053 175.903 51.0792 175.856 51.1569C175.81 51.2346 175.786 51.3162 175.786 51.4017C175.786 51.4871 175.821 51.559 175.891 51.6173C175.965 51.6717 176.075 51.7144 176.219 51.7455C176.367 51.7727 176.55 51.7863 176.768 51.7863H177.879C178.597 51.7863 179.142 51.9398 179.516 52.2467C179.895 52.5537 180.084 53.0044 180.084 53.5988C180.084 54.3604 179.764 54.9509 179.125 55.3706C178.489 55.7902 177.575 56 176.383 56ZM176.459 54.8402C176.883 54.8402 177.248 54.7994 177.552 54.7178C177.86 54.6401 178.096 54.5274 178.259 54.3798C178.423 54.236 178.505 54.0631 178.505 53.8611C178.505 53.6979 178.456 53.5678 178.359 53.4706C178.265 53.3774 178.121 53.3113 177.926 53.2725C177.735 53.2336 177.49 53.2142 177.189 53.2142H176.266C176.047 53.2142 175.85 53.2492 175.675 53.3191C175.504 53.389 175.367 53.4862 175.266 53.6105C175.164 53.7387 175.114 53.8864 175.114 54.0534C175.114 54.2982 175.231 54.4905 175.465 54.6304C175.702 54.7703 176.034 54.8402 176.459 54.8402ZM176.745 49.898C177.08 49.898 177.326 49.795 177.482 49.5891C177.638 49.3832 177.716 49.1034 177.716 48.7499C177.716 48.3575 177.634 48.0641 177.47 47.8698C177.31 47.6717 177.069 47.5726 176.745 47.5726C176.418 47.5726 176.172 47.6717 176.008 47.8698C175.845 48.0641 175.763 48.3575 175.763 48.7499C175.763 49.1034 175.843 49.3832 176.003 49.5891C176.166 49.795 176.414 49.898 176.745 49.898Z" fill="#606368"/>
<path d="M187.79 53.1326H185.977V46.1156H183.656V44.6119H190.111V46.1156H187.79V53.1326Z" fill="#606368"/>
<path d="M194.935 46.4944C195.024 46.4944 195.128 46.5002 195.245 46.5119C195.365 46.5197 195.463 46.5313 195.537 46.5469L195.402 48.2137C195.344 48.1943 195.26 48.1807 195.151 48.1729C195.046 48.1612 194.954 48.1554 194.876 48.1554C194.646 48.1554 194.422 48.1846 194.204 48.2428C193.989 48.3011 193.796 48.3963 193.625 48.5284C193.453 48.6566 193.317 48.8276 193.216 49.0413C193.118 49.2511 193.07 49.5095 193.07 49.8164V53.1326H191.286V46.6168H192.637L192.9 47.7125H192.988C193.116 47.491 193.276 47.289 193.467 47.1064C193.662 46.9199 193.882 46.7722 194.128 46.6634C194.377 46.5508 194.646 46.4944 194.935 46.4944Z" fill="#606368"/>
<path d="M199.402 46.4828C200.279 46.4828 200.951 46.6731 201.419 47.0539C201.887 47.4347 202.12 48.0136 202.12 48.7907V53.1326H200.875L200.53 52.2467H200.483C200.296 52.4798 200.105 52.6702 199.91 52.8179C199.715 52.9655 199.491 53.0743 199.238 53.1442C198.985 53.2142 198.677 53.2492 198.314 53.2492C197.928 53.2492 197.581 53.1753 197.273 53.0277C196.969 52.88 196.73 52.6547 196.554 52.3516C196.379 52.0447 196.291 51.6561 196.291 51.186C196.291 50.4944 196.535 49.9854 197.022 49.6591C197.509 49.3288 198.24 49.1462 199.215 49.1112L200.349 49.0763V48.7907C200.349 48.4488 200.259 48.1982 200.08 48.0389C199.901 47.8796 199.651 47.7999 199.332 47.7999C199.016 47.7999 198.706 47.8446 198.402 47.9339C198.098 48.0233 197.794 48.136 197.49 48.272L196.899 47.0714C197.246 46.8888 197.634 46.745 198.063 46.6401C198.495 46.5352 198.942 46.4828 199.402 46.4828ZM200.349 50.1136L199.659 50.137C199.082 50.1525 198.681 50.2555 198.454 50.4458C198.232 50.6362 198.121 50.8868 198.121 51.1977C198.121 51.4696 198.201 51.6639 198.361 51.7805C198.521 51.8932 198.729 51.9495 198.987 51.9495C199.369 51.9495 199.69 51.8368 199.951 51.6115C200.216 51.3861 200.349 51.0656 200.349 50.6498V50.1136Z" fill="#606368"/>
<path d="M207.675 46.4944C208.373 46.4944 208.934 46.6848 209.359 47.0656C209.784 47.4424 209.996 48.0486 209.996 48.8839V53.1326H208.213V49.3269C208.213 48.8606 208.127 48.509 207.956 48.272C207.788 48.035 207.523 47.9165 207.16 47.9165C206.615 47.9165 206.243 48.101 206.044 48.4701C205.845 48.8392 205.746 49.3715 205.746 50.067V53.1326H203.962V46.6168H205.325L205.564 47.4502H205.664C205.804 47.2249 205.977 47.0423 206.184 46.9024C206.395 46.7625 206.626 46.6595 206.88 46.5935C207.137 46.5274 207.402 46.4944 207.675 46.4944Z" fill="#606368"/>
<path d="M216.393 51.1977C216.393 51.6406 216.287 52.0155 216.077 52.3225C215.87 52.6255 215.561 52.8567 215.147 53.016C214.734 53.1714 214.22 53.2492 213.604 53.2492C213.148 53.2492 212.756 53.22 212.429 53.1617C212.105 53.1034 211.778 53.0063 211.446 52.8703V51.4017C211.801 51.561 212.181 51.6931 212.586 51.798C212.996 51.899 213.354 51.9495 213.662 51.9495C214.009 51.9495 214.257 51.899 214.405 51.798C214.557 51.6931 214.633 51.5571 214.633 51.39C214.633 51.2812 214.602 51.1841 214.539 51.0986C214.481 51.0092 214.352 50.9102 214.153 50.8014C213.955 50.6887 213.643 50.543 213.218 50.3643C212.809 50.1933 212.471 50.0204 212.206 49.8456C211.945 49.6707 211.75 49.4648 211.622 49.2278C211.497 48.9869 211.435 48.6819 211.435 48.3128C211.435 47.7105 211.668 47.2579 212.136 46.9548C212.608 46.6479 213.237 46.4944 214.025 46.4944C214.43 46.4944 214.816 46.5352 215.182 46.6168C215.553 46.6984 215.933 46.8286 216.323 47.0073L215.785 48.2895C215.461 48.1496 215.155 48.035 214.867 47.9456C214.582 47.8562 214.292 47.8116 213.995 47.8116C213.734 47.8116 213.537 47.8465 213.405 47.9165C213.272 47.9864 213.206 48.0932 213.206 48.237C213.206 48.3419 213.239 48.4352 213.306 48.5168C213.376 48.5983 213.508 48.6897 213.703 48.7907C213.902 48.8878 214.192 49.0141 214.574 49.1695C214.945 49.321 215.266 49.4803 215.539 49.6474C215.812 49.8106 216.022 50.0146 216.171 50.2593C216.319 50.5002 216.393 50.813 216.393 51.1977Z" fill="#606368"/>
<path d="M219.568 53.1326H217.784V44.0641H219.568V53.1326Z" fill="#606368"/>
<path d="M224.122 46.4828C224.999 46.4828 225.672 46.6731 226.139 47.0539C226.607 47.4347 226.841 48.0136 226.841 48.7907V53.1326H225.596L225.251 52.2467H225.204C225.017 52.4798 224.826 52.6702 224.631 52.8179C224.436 52.9655 224.212 53.0743 223.959 53.1442C223.705 53.2142 223.397 53.2492 223.035 53.2492C222.649 53.2492 222.302 53.1753 221.994 53.0277C221.69 52.88 221.45 52.6547 221.275 52.3516C221.099 52.0447 221.012 51.6561 221.012 51.186C221.012 50.4944 221.255 49.9854 221.743 49.6591C222.23 49.3288 222.961 49.1462 223.935 49.1112L225.069 49.0763V48.7907C225.069 48.4488 224.98 48.1982 224.801 48.0389C224.621 47.8796 224.372 47.7999 224.052 47.7999C223.736 47.7999 223.426 47.8446 223.122 47.9339C222.818 48.0233 222.514 48.136 222.21 48.272L221.62 47.0714C221.967 46.8888 222.355 46.745 222.783 46.6401C223.216 46.5352 223.662 46.4828 224.122 46.4828ZM225.069 50.1136L224.38 50.137C223.803 50.1525 223.401 50.2555 223.175 50.4458C222.953 50.6362 222.842 50.8868 222.842 51.1977C222.842 51.4696 222.922 51.6639 223.082 51.7805C223.241 51.8932 223.45 51.9495 223.707 51.9495C224.089 51.9495 224.411 51.8368 224.672 51.6115C224.937 51.3861 225.069 51.0656 225.069 50.6498V50.1136Z" fill="#606368"/>
<path d="M231.437 51.8329C231.632 51.8329 231.821 51.8135 232.004 51.7746C232.191 51.7358 232.376 51.6872 232.559 51.6289V52.9519C232.368 53.0374 232.131 53.1073 231.846 53.1617C231.565 53.22 231.257 53.2492 230.922 53.2492C230.532 53.2492 230.182 53.187 229.87 53.0627C229.562 52.9344 229.318 52.7149 229.139 52.4041C228.963 52.0894 228.876 51.6523 228.876 51.0928V47.9514H228.022V47.1996L229.004 46.6051L229.519 45.2297H230.659V46.6168H232.489V47.9514H230.659V51.0928C230.659 51.3414 230.729 51.5279 230.87 51.6523C231.014 51.7727 231.203 51.8329 231.437 51.8329Z" fill="#606368"/>
<path d="M235.67 46.6168V53.1326H233.887V46.6168H235.67ZM234.781 44.0641C235.046 44.0641 235.274 44.1263 235.465 44.2506C235.656 44.3711 235.752 44.5983 235.752 44.9325C235.752 45.2627 235.656 45.492 235.465 45.6202C235.274 45.7445 235.046 45.8067 234.781 45.8067C234.512 45.8067 234.282 45.7445 234.091 45.6202C233.904 45.492 233.811 45.2627 233.811 44.9325C233.811 44.5983 233.904 44.3711 234.091 44.2506C234.282 44.1263 234.512 44.0641 234.781 44.0641Z" fill="#606368"/>
<path d="M243.487 49.863C243.487 50.407 243.413 50.8888 243.265 51.3084C243.121 51.728 242.908 52.0835 242.628 52.3749C242.351 52.6625 242.016 52.88 241.622 53.0277C241.232 53.1753 240.792 53.2492 240.301 53.2492C239.841 53.2492 239.418 53.1753 239.032 53.0277C238.65 52.88 238.317 52.6625 238.032 52.3749C237.751 52.0835 237.533 51.728 237.377 51.3084C237.225 50.8888 237.149 50.407 237.149 49.863C237.149 49.1404 237.278 48.5284 237.535 48.0272C237.792 47.526 238.159 47.1452 238.634 46.8849C239.11 46.6246 239.677 46.4944 240.336 46.4944C240.948 46.4944 241.489 46.6246 241.961 46.8849C242.437 47.1452 242.809 47.526 243.078 48.0272C243.351 48.5284 243.487 49.1404 243.487 49.863ZM238.967 49.863C238.967 50.2904 239.014 50.6498 239.108 50.9412C239.201 51.2326 239.348 51.4522 239.546 51.5998C239.745 51.7474 240.004 51.8213 240.324 51.8213C240.64 51.8213 240.895 51.7474 241.09 51.5998C241.289 51.4522 241.433 51.2326 241.523 50.9412C241.616 50.6498 241.663 50.2904 241.663 49.863C241.663 49.4318 241.616 49.0743 241.523 48.7907C241.433 48.5032 241.289 48.2875 241.09 48.1438C240.891 48 240.632 47.9281 240.312 47.9281C239.841 47.9281 239.498 48.0894 239.283 48.4119C239.073 48.7343 238.967 49.2181 238.967 49.863Z" fill="#606368"/>
<path d="M248.673 46.4944C249.371 46.4944 249.932 46.6848 250.357 47.0656C250.782 47.4424 250.994 48.0486 250.994 48.8839V53.1326H249.211V49.3269C249.211 48.8606 249.125 48.509 248.954 48.272C248.786 48.035 248.521 47.9165 248.159 47.9165C247.613 47.9165 247.241 48.101 247.042 48.4701C246.843 48.8392 246.744 49.3715 246.744 50.067V53.1326H244.961V46.6168H246.323L246.563 47.4502H246.662C246.802 47.2249 246.976 47.0423 247.182 46.9024C247.393 46.7625 247.625 46.6595 247.878 46.5935C248.135 46.5274 248.4 46.4944 248.673 46.4944Z" fill="#606368"/>
<path d="M255.508 46.4828C256.385 46.4828 257.058 46.6731 257.525 47.0539C257.993 47.4347 258.227 48.0136 258.227 48.7907V53.1326H256.982L256.637 52.2467H256.59C256.403 52.4798 256.212 52.6702 256.017 52.8179C255.822 52.9655 255.598 53.0743 255.345 53.1442C255.091 53.2142 254.783 53.2492 254.421 53.2492C254.035 53.2492 253.688 53.1753 253.38 53.0277C253.076 52.88 252.836 52.6547 252.661 52.3516C252.485 52.0447 252.398 51.6561 252.398 51.186C252.398 50.4944 252.641 49.9854 253.129 49.6591C253.616 49.3288 254.347 49.1462 255.321 49.1112L256.455 49.0763V48.7907C256.455 48.4488 256.366 48.1982 256.187 48.0389C256.007 47.8796 255.758 47.7999 255.438 47.7999C255.122 47.7999 254.812 47.8446 254.508 47.9339C254.204 48.0233 253.9 48.136 253.596 48.272L253.006 47.0714C253.353 46.8888 253.741 46.745 254.169 46.6401C254.602 46.5352 255.048 46.4828 255.508 46.4828ZM256.455 50.1136L255.766 50.137C255.189 50.1525 254.787 50.2555 254.561 50.4458C254.339 50.6362 254.228 50.8868 254.228 51.1977C254.228 51.4696 254.308 51.6639 254.468 51.7805C254.627 51.8932 254.836 51.9495 255.093 51.9495C255.475 51.9495 255.797 51.8368 256.058 51.6115C256.323 51.3861 256.455 51.0656 256.455 50.6498V50.1136Z" fill="#606368"/>
<path d="M261.852 53.1326H260.069V44.0641H261.852V53.1326Z" fill="#606368"/>
<path d="M272.026 50.7664C272.026 51.2715 271.903 51.7105 271.657 52.0835C271.412 52.4565 271.053 52.7441 270.582 52.9461C270.114 53.1481 269.545 53.2492 268.874 53.2492C268.578 53.2492 268.288 53.2297 268.003 53.1909C267.722 53.152 267.451 53.0957 267.19 53.0219C266.933 52.9441 266.688 52.849 266.454 52.7363V51.0578C266.859 51.2365 267.28 51.3978 267.717 51.5415C268.153 51.6853 268.586 51.7572 269.015 51.7572C269.311 51.7572 269.549 51.7183 269.728 51.6406C269.911 51.5629 270.044 51.456 270.125 51.3201C270.207 51.1841 270.248 51.0287 270.248 50.8538C270.248 50.6401 270.176 50.4575 270.032 50.306C269.888 50.1544 269.689 50.0126 269.436 49.8805C269.186 49.7484 268.903 49.6066 268.588 49.4551C268.389 49.3618 268.173 49.2491 267.939 49.117C267.705 48.9811 267.483 48.8159 267.272 48.6217C267.062 48.4274 266.888 48.1923 266.752 47.9165C266.619 47.6367 266.553 47.3026 266.553 46.914C266.553 46.4051 266.67 45.9699 266.904 45.6085C267.138 45.2472 267.471 44.9713 267.904 44.781C268.34 44.5867 268.855 44.4896 269.447 44.4896C269.892 44.4896 270.315 44.542 270.716 44.6469C271.121 44.7479 271.544 44.8956 271.985 45.0898L271.4 46.4944C271.006 46.3351 270.654 46.2127 270.342 46.1272C270.03 46.0379 269.712 45.9932 269.389 45.9932C269.163 45.9932 268.97 46.0301 268.81 46.1039C268.65 46.1739 268.529 46.2749 268.447 46.407C268.366 46.5352 268.325 46.6848 268.325 46.8558C268.325 47.0578 268.383 47.2288 268.5 47.3686C268.621 47.5046 268.8 47.6367 269.038 47.7649C269.28 47.8932 269.58 48.0427 269.938 48.2137C270.375 48.4196 270.747 48.6353 271.055 48.8606C271.367 49.0821 271.607 49.3443 271.774 49.6474C271.942 49.9466 272.026 50.3196 272.026 50.7664Z" fill="#606368"/>
<path d="M276.089 53.2492C275.442 53.2492 274.891 53.1326 274.435 52.8995C273.979 52.6625 273.632 52.2972 273.394 51.8038C273.156 51.3103 273.037 50.679 273.037 49.9097C273.037 49.1132 273.172 48.4643 273.441 47.9631C273.713 47.458 274.09 47.0869 274.569 46.8499C275.052 46.6129 275.612 46.4944 276.247 46.4944C276.699 46.4944 277.089 46.5391 277.417 46.6285C277.748 46.7139 278.036 46.8169 278.282 46.9373L277.756 48.3128C277.475 48.2001 277.214 48.1088 276.972 48.0389C276.73 47.965 276.489 47.9281 276.247 47.9281C275.935 47.9281 275.676 48.0019 275.469 48.1496C275.263 48.2933 275.109 48.5109 275.008 48.8023C274.906 49.0937 274.856 49.459 274.856 49.898C274.856 50.3293 274.91 50.6867 275.019 50.9704C275.128 51.254 275.286 51.4658 275.493 51.6056C275.699 51.7416 275.951 51.8096 276.247 51.8096C276.617 51.8096 276.947 51.761 277.235 51.6639C277.524 51.5629 277.804 51.423 278.077 51.2443V52.7654C277.804 52.9364 277.518 53.0588 277.218 53.1326C276.921 53.2103 276.545 53.2492 276.089 53.2492Z" fill="#606368"/>
<path d="M281.381 46.6168V53.1326H279.597V46.6168H281.381ZM280.492 44.0641C280.757 44.0641 280.985 44.1263 281.176 44.2506C281.367 44.3711 281.463 44.5983 281.463 44.9325C281.463 45.2627 281.367 45.492 281.176 45.6202C280.985 45.7445 280.757 45.8067 280.492 45.8067C280.223 45.8067 279.993 45.7445 279.802 45.6202C279.615 45.492 279.521 45.2627 279.521 44.9325C279.521 44.5983 279.615 44.3711 279.802 44.2506C279.993 44.1263 280.223 44.0641 280.492 44.0641Z" fill="#606368"/>
<path d="M285.953 46.4944C286.557 46.4944 287.077 46.611 287.514 46.8441C287.951 47.0733 288.288 47.4075 288.526 47.8465C288.763 48.2856 288.882 48.8218 288.882 49.4551V50.3176H284.667C284.686 50.8188 284.836 51.2132 285.117 51.5007C285.401 51.7844 285.795 51.9262 286.298 51.9262C286.715 51.9262 287.097 51.8834 287.444 51.798C287.791 51.7125 288.147 51.5843 288.514 51.4133V52.7887C288.19 52.948 287.851 53.0646 287.497 53.1384C287.146 53.2122 286.719 53.2492 286.216 53.2492C285.561 53.2492 284.98 53.1287 284.474 52.8878C283.971 52.6469 283.575 52.2797 283.287 51.7863C283.002 51.2929 282.86 50.6712 282.86 49.9213C282.86 49.1598 282.989 48.5265 283.246 48.0214C283.507 47.5124 283.87 47.1316 284.333 46.8791C284.797 46.6226 285.337 46.4944 285.953 46.4944ZM285.965 47.7591C285.618 47.7591 285.329 47.8698 285.099 48.0913C284.873 48.3128 284.743 48.6605 284.708 49.1345H287.21C287.206 48.8703 287.157 48.6353 287.064 48.4293C286.974 48.2234 286.838 48.0602 286.655 47.9398C286.475 47.8193 286.245 47.7591 285.965 47.7591Z" fill="#606368"/>
<path d="M294.045 46.4944C294.743 46.4944 295.304 46.6848 295.729 47.0656C296.154 47.4424 296.366 48.0486 296.366 48.8839V53.1326H294.583V49.3269C294.583 48.8606 294.497 48.509 294.326 48.272C294.158 48.035 293.893 47.9165 293.53 47.9165C292.985 47.9165 292.613 48.101 292.414 48.4701C292.215 48.8392 292.116 49.3715 292.116 50.067V53.1326H290.332V46.6168H291.695L291.934 47.4502H292.034C292.174 47.2249 292.347 47.0423 292.554 46.9024C292.765 46.7625 292.996 46.6595 293.25 46.5935C293.507 46.5274 293.772 46.4944 294.045 46.4944Z" fill="#606368"/>
<path d="M300.857 53.2492C300.21 53.2492 299.658 53.1326 299.202 52.8995C298.746 52.6625 298.399 52.2972 298.161 51.8038C297.923 51.3103 297.805 50.679 297.805 49.9097C297.805 49.1132 297.939 48.4643 298.208 47.9631C298.481 47.458 298.857 47.0869 299.336 46.8499C299.82 46.6129 300.379 46.4944 301.014 46.4944C301.467 46.4944 301.856 46.5391 302.184 46.6285C302.515 46.7139 302.804 46.8169 303.049 46.9373L302.523 48.3128C302.242 48.2001 301.981 48.1088 301.74 48.0389C301.498 47.965 301.256 47.9281 301.014 47.9281C300.703 47.9281 300.443 48.0019 300.237 48.1496C300.03 48.2933 299.876 48.5109 299.775 48.8023C299.674 49.0937 299.623 49.459 299.623 49.898C299.623 50.3293 299.677 50.6867 299.787 50.9704C299.896 51.254 300.054 51.4658 300.26 51.6056C300.467 51.7416 300.718 51.8096 301.014 51.8096C301.385 51.8096 301.714 51.761 302.003 51.6639C302.291 51.5629 302.572 51.423 302.845 51.2443V52.7654C302.572 52.9364 302.285 53.0588 301.985 53.1326C301.689 53.2103 301.313 53.2492 300.857 53.2492Z" fill="#606368"/>
<path d="M307.06 46.4944C307.664 46.4944 308.185 46.611 308.621 46.8441C309.058 47.0733 309.395 47.4075 309.633 47.8465C309.871 48.2856 309.989 48.8218 309.989 49.4551V50.3176H305.774C305.793 50.8188 305.943 51.2132 306.224 51.5007C306.509 51.7844 306.902 51.9262 307.405 51.9262C307.822 51.9262 308.204 51.8834 308.551 51.798C308.898 51.7125 309.255 51.5843 309.621 51.4133V52.7887C309.298 52.948 308.958 53.0646 308.604 53.1384C308.253 53.2122 307.826 53.2492 307.323 53.2492C306.668 53.2492 306.088 53.1287 305.581 52.8878C305.078 52.6469 304.682 52.2797 304.394 51.7863C304.109 51.2929 303.967 50.6712 303.967 49.9213C303.967 49.1598 304.096 48.5265 304.353 48.0214C304.614 47.5124 304.977 47.1316 305.441 46.8791C305.904 46.6226 306.444 46.4944 307.06 46.4944ZM307.072 47.7591C306.725 47.7591 306.436 47.8698 306.206 48.0913C305.98 48.3128 305.85 48.6605 305.815 49.1345H308.317C308.313 48.8703 308.265 48.6353 308.171 48.4293C308.081 48.2234 307.945 48.0602 307.762 47.9398C307.582 47.8193 307.352 47.7591 307.072 47.7591Z" fill="#606368"/>
<path d="M316 51.1977C316 51.6406 315.895 52.0155 315.684 52.3225C315.478 52.6255 315.168 52.8567 314.755 53.016C314.341 53.1714 313.827 53.2492 313.211 53.2492C312.755 53.2492 312.363 53.22 312.036 53.1617C311.712 53.1034 311.385 53.0063 311.054 52.8703V51.4017C311.408 51.561 311.788 51.6931 312.194 51.798C312.603 51.899 312.962 51.9495 313.27 51.9495C313.616 51.9495 313.864 51.899 314.012 51.798C314.164 51.6931 314.24 51.5571 314.24 51.39C314.24 51.2812 314.209 51.1841 314.147 51.0986C314.088 51.0092 313.959 50.9102 313.761 50.8014C313.562 50.6887 313.25 50.543 312.825 50.3643C312.416 50.1933 312.079 50.0204 311.814 49.8456C311.552 49.6707 311.358 49.4648 311.229 49.2278C311.104 48.9869 311.042 48.6819 311.042 48.3128C311.042 47.7105 311.276 47.2579 311.743 46.9548C312.215 46.6479 312.845 46.4944 313.632 46.4944C314.037 46.4944 314.423 46.5352 314.79 46.6168C315.16 46.6984 315.54 46.8286 315.93 47.0073L315.392 48.2895C315.068 48.1496 314.762 48.035 314.474 47.9456C314.189 47.8562 313.899 47.8116 313.603 47.8116C313.342 47.8116 313.145 47.8465 313.012 47.9165C312.88 47.9864 312.813 48.0932 312.813 48.237C312.813 48.3419 312.847 48.4352 312.913 48.5168C312.983 48.5983 313.116 48.6897 313.31 48.7907C313.509 48.8878 313.8 49.0141 314.182 49.1695C314.552 49.321 314.874 49.4803 315.146 49.6474C315.419 49.8106 315.63 50.0146 315.778 50.2593C315.926 50.5002 316 50.813 316 51.1977Z" fill="#606368"/>
</svg>
